<svg xmlns="http://www.w3.org/2000/svg" viewBox="0 0 50 50">
	<g>
		<path d="M49.2,13c-0.1-2.9-0.6-4.5-1-5.5C47.7,6.1,47,5.1,46,4c-1-1-2-1.7-3.4-2.2c-1-0.4-2.6-0.9-5.5-1c-8-0.4-16.1-0.4-24.1,0c-2.9,0.1-4.5,0.6-5.5,1C6.1,2.3,5.1,3,4,4c-1,1-1.7,2-2.2,3.4c-0.4,1-0.9,2.6-1,5.5c-0.4,8-0.4,16.1,0,24.1c0.1,2.9,0.6,4.5,1,5.5C2.3,43.9,3,44.9,4,46c1,1,2,1.7,3.4,2.2c1,0.4,2.6,0.9,5.5,1c8,0.4,16.1,0.4,24.1,0c2.9-0.1,4.5-0.6,5.5-1c1.4-0.5,2.4-1.2,3.4-2.2c1-1,1.7-2,2.2-3.4c0.4-1,0.9-2.6,1-5.5C49.6,29.1,49.6,20.9,49.2,13z M25,38.4c-7.4,0-13.4-6-13.4-13.4c0-7.4,6-13.4,13.4-13.4c7.4,0,13.4,6,13.4,13.4C38.4,32.4,32.4,38.4,25,38.4z M40.9,12.7c-2,0-3.6-1.6-3.6-3.6c0-2,1.6-3.6,3.6-3.6c2,0,3.6,1.6,3.6,3.6C44.5,11.1,42.9,12.7,40.9,12.7z"/>
		<circle cx="25" cy="25" r="8.7"/>
	</g>
</svg>
