<svg xmlns="http://www.w3.org/2000/svg" viewBox="0 0 50 50"><path d="M49.2 13c-.1-2.9-.6-4.5-1-5.5C47.7 6.1 47 5.1 46 4c-1-1-2-1.7-3.4-2.2-1-.4-2.6-.9-5.5-1C29.1.4 21 .4 13 .8c-2.9.1-4.5.6-5.5 1C6.1 2.3 5.1 3 4 4 3 5 2.3 6 1.8 7.4c-.4 1-.9 2.6-1 5.5C.4 20.9.4 29 .8 37c.1 2.9.6 4.5 1 5.5C2.3 43.9 3 44.9 4 46c1 1 2 1.7 3.4 2.2 1 .4 2.6.9 5.5 1 8 .4 16.1.4 24.1 0 2.9-.1 4.5-.6 5.5-1 1.4-.5 2.4-1.2 3.4-2.2 1-1 1.7-2 2.2-3.4.4-1 .9-2.6 1-5.5.5-8 .5-16.2.1-24.1zM25 38.4c-7.4 0-13.4-6-13.4-13.4s6-13.4 13.4-13.4 13.4 6 13.4 13.4-6 13.4-13.4 13.4zm15.9-25.7c-2 0-3.6-1.6-3.6-3.6s1.6-3.6 3.6-3.6 3.6 1.6 3.6 3.6-1.6 3.6-3.6 3.6z"/><circle cx="25" cy="25" r="8.7"/></svg>