<svg xmlns="http://www.w3.org/2000/svg" width="20" height="20" viewBox="0 0 50 50"><g fill="#b8b8b8"><path d="M23.7 4.2c5.2 0 10.1 2.3 13.4 6.4 2.9 3.6 4.2 8 3.7 12.6-.5 4.5-2.7 8.6-6.3 11.5-3.1 2.5-6.8 3.8-10.7 3.8-5.2 0-10.1-2.3-13.4-6.4-2.9-3.6-4.2-8-3.7-12.6C7.2 15 9.4 10.9 13 8c3.1-2.5 6.8-3.8 10.7-3.8m0-3.7c-4.6 0-9.2 1.5-13 4.6-9 7.2-10.4 20.3-3.2 29.2 4.1 5.1 10.1 7.8 16.2 7.8 4.6 0 9.2-1.5 13-4.6 9-7.2 10.4-20.3 3.2-29.2C35.9 3.2 29.8.5 23.7.5"/><path d="M36.3 34.3c-.5 0-1.1.2-1.5.5-1 .8-1.2 2.4-.4 3.4l8.3 10.3c.5.6 1.2.9 1.9.9.5 0 1.1-.2 1.5-.5 1-.8 1.2-2.4.4-3.4l-8.3-10.3c-.4-.6-1.1-.9-1.9-.9"/></g></svg>