<svg xmlns="http://www.w3.org/2000/svg" viewBox="0 0 50 50"><path d="M43.3 27c.1-.1 0 0 .1-.2l.3-.9c1.4 0 2.4-.2 3.5-.6l2.3-1.6c-.8 0-1.6.2-2.8 0l-2.5-.5c.1-.2.5-.2.8-.2.3 0 .6-.1.9-.2.6-.1 1-.3 1.5-.5l1.9-1.9c-.9.3-1.7.5-2.9.5-.6 0-2.7 0-2.9-.5-.2-.6-.2-1.2-.7-2.4-.3-.7-.7-1.4-1.1-2.1-.9-1.3-2-2.4-3.3-3.2l-5.3-1.5c.3-.3 1.6-.6 2-.7 2.4-.6 2.2-1.5 1.6-1.7-.7-.2-2.5.5-3.3.7L34.8 8c-1.5.1-2.5.9-3.6 1.6l.5-1.1c-1.4.5-4 3.8-4.7 5.2l-3 6.5c-.3-.1-2-1.9-3.4-2.7-1.2-.7-2.7-1.5-4.1-2.1-3.3-1.5-5.6-2.4-8.9-3.6-.2 2.9 1.7 4.5 4.1 6.1l-2.9.4c0 1.2 1 2.6 1.7 3.2 1.3 1.1 2 1.1 3.3 1.6l.3.1c-2 .3-1.4.1-3.1 1.2 0 .8 1.7 2.4 3 2.7l2.8.4c-.2.2-.5.3-.7.5-.3.2-.4.3-.6.5-.4.5-.6 1-.3 1.7l3.3 1.5c-.2.3-1.3 1.2-1.6 1.5-2 1.4-4.2 2.3-7 2.5-2 .1-4-.3-5.5-.9-1.8-.7-2.5-1.3-3.8-2.3.3.5 1.2 1.5 1.7 2.1 5.2 5.5 13.5 8.5 22.3 6.9 5.3-1 8.8-2.8 11.9-5.1.5-.4 1.7-1.5 2.2-1.9 1.4-1.4 2.6-2.9 3.5-4.6.2-.6 1.1-2.4 1.1-2.9z"/></svg>