<svg xmlns="http://www.w3.org/2000/svg" viewBox="0 0 50 50"><path d="M42.5 28.7c3 2.8 5.1 5 6.3 6.8.6.9.7 1.6.5 2.3-.2.7-.7 1-1.4 1l-7.8.4c-1.1.1-2.5-.6-4-2-1.6-1.4-2.7-2.6-3.2-3.6-.3-.6-.9-.9-1.7-.9-.8-.1-1.4.3-1.6 1.2l-.2 3.1c-.1.6-.3 1.1-.7 1.4-.4.3-.7.5-1 .5-.3 0-.7.1-1.4.2-2.1.1-3.9 0-5.4-.3-1.5-.3-2.9-.9-4.2-1.7-1.3-.9-2.3-1.7-3-2.4-.8-.7-1.8-1.9-3.3-3.4C6.5 25.8 3.6 21 1.7 16.9 1 15.3.6 14 .5 12.9c.3-.3.9-.5 1.8-.6.9-.1 2.1-.1 3.8-.1 1.7 0 2.6.1 3 .1.8-.1 1.4.4 1.9 1.3 2 4.4 3.9 7.9 5.8 10.3 1.3 1.2 2.1 1 2.5-.6.2 0 .2-1.9.2-5.8.1-2.5-.9-4-3-4.6.5-1.3 2.1-1.9 5-1.9.7 0 1.6 0 2.6.1s1.6.1 1.7.1c2.4 0 3.6.9 3.6 2.8 0 .2 0 .8-.1 1.7-.1.9-.1 1.8-.2 2.6 0 .8-.1 1.7-.1 2.6 0 .9.1 1.7.4 2.3.2.6.6 1 1 1.2.4-.3.9-.6 1.2-.9.4-.3.8-.7 1.2-1.4.4-.6.8-1.1 1-1.4.2-.3.6-.9 1.1-1.8.5-.9.8-1.4.8-1.7.1-.2.4-.8.8-1.8.5-1 .7-1.5.7-1.5l.2-.4c.3-.7.6-1.1.8-1.2.2-.1.7-.2 1.5-.2H47c.9 0 1.4 0 1.5.1.2 0 .4.2.7.5.6.7.1 2.3-1.5 4.6-1.5 2.4-3 4.4-4.5 5.9-1.8 2.4-2.1 4.1-.7 5.5z"/></svg>