<svg xmlns="http://www.w3.org/2000/svg" viewBox="0 0 50 50"><path d="M31.2 5.3h2.4v10.4c.1.3.2.8.4.9.3.1.7 0 1-.2.6-.3.9-.8.9-1.5-.1-3 0-5.9 0-8.9v-.6h2.5v13.4H36v-1.5c-.3.2-.4.4-.6.5-.6.6-1.3 1-2.1 1.1-.9.2-1.7-.3-1.9-1.2-.1-.4-.1-.8-.1-1.2V5.8c-.1-.1-.1-.3-.1-.5zm-7-.1c1.6-.4 3-.2 4.1 1.1.4.5.7 1.1.7 1.8V16c0 1.8-1.4 3.1-3.2 3.2-1.3.1-2.5-.2-3.4-1.4-.4-.6-.6-1.2-.6-1.9V8c0-1.4.9-2.5 2.4-2.8zm1 11.6c.8.1 1.3-.4 1.3-1.3V8.4c0-.6-.2-1-.7-1.1-.8-.3-1.5.2-1.5 1.1v7c0 .2 0 .4.1.6 0 .5.3.8.8.8zM15 .5c.1 0 .2.3.2.4.5 2.1 1.1 4.3 1.6 6.4 0 .2.1.3.1.4h.2l.3-1.2c.5-1.9.9-3.8 1.3-5.7.1-.3.2-.5.5-.4h2.4c-.1.2-.1.4-.2.6-1 3.2-2 6.4-2.9 9.6-.1.3-.1.7-.1 1v7.1h-2.8V12c0-.4-.1-.7-.2-1.1l-3-9.9c0-.2-.1-.3-.1-.5H15zm30.6 39.7c-.1 1.6-.1 3.1-.4 4.6-.5 2.5-2.9 4.3-5.5 4.4-8 .3-16 .4-24 .2-1.9 0-3.8-.1-5.7-.2-2.8-.1-5.2-2.6-5.4-5.3-.3-3.9-.4-7.7-.3-11.5.1-1.9.1-3.8.4-5.7.3-2.6 2.6-4.7 5.2-4.8 3.9-.2 7.7-.2 11.6-.3H25v-.1l14.3.3c2.6.1 4.5 1.2 5.7 3.5.5 1.1.5 2.3.6 3.5.2 3.8.2 7.6 0 11.4zm-7.8-4.6c0-.6 0-1.2.1-1.7 0-.4.3-.6.7-.6.4 0 .7.1.7.5.1.6.1 1.2.1 1.8h-1.6zm.5 2.7H42c.4 0 .6-.1.6-.6 0-1.3 0-2.7-.1-4-.1-1.2-.5-2.3-1.6-2.9-2.5-1.4-6.1-.2-6.3 3.4-.1 2.3 0 4.7 0 7 0 1 .4 2 1.2 2.8 1.1 1.1 2.5 1.2 3.9.9 1.3-.3 2.2-1 2.6-2.3.2-1 .2-2 .3-2.9 0-.3-.2-.4-.5-.4H40c-.4 0-.5.2-.5.6 0 .5 0 1.1-.1 1.6s-.5.8-1 .6c-.4-.1-.5-.5-.5-.8v-3h.4zm-8.2 3.1c0 .6-.2.8-.6.8-.5 0-.9-.3-.9-.9V34c0-.4.2-.7.7-.8.4-.1.7.2.8.6 0 .1.1.3.1.4-.1 2.4-.1 4.8-.1 7.2zm2.9-9c-.6-1.9-2.5-2.5-4.1-1.3-.1.1-.2.1-.4.2v-4.8c0-.5-.2-.6-.6-.6h-1.8c-.6 0-.7.1-.7.7v17.7c0 .6.1.7.7.7H28c.4 0 .6-.1.6-.6.2.1.3.2.4.3 1.2.7 2.8.5 3.5-.4.6-.7.7-1.5.7-2.3v-7.8c.1-.7 0-1.3-.2-1.8zm-16.5-3.8v-2.3c0-.4-.2-.5-.5-.5H7.8c-.4 0-.6.2-.6.5v2.1c0 .6.1.6.6.6h2.3v14.9c0 .7 0 .8.8.8h1.9c.7 0 .8 0 .8-.8v-15H16c.3.2.5 0 .5-.3zm6.5 2h-1.8c-.6 0-.7.1-.7.7v9.5c0 .4-.7 1.1-1.1 1.1-.7-.1-.4-.6-.4-.9v-9.7c0-.5-.2-.6-.6-.6h-1.8c-.7 0-.7.1-.7.7v11.3c.2 2 1.6 2.8 3.4 1.9.4-.2.8-.5 1.2-.8v.2c0 .6.1.7.7.7h1.9c.4 0 .5-.2.5-.5V31.1c0-.3-.2-.5-.6-.5z"/></svg>