<svg xmlns="http://www.w3.org/2000/svg" viewBox="0 0 20 20">
	<g>
		<path d="M9.5,1.5L9.5,1.5c2.1,0,4.1,1,5.5,2.6c1.2,1.5,1.7,3.3,1.5,5.1c-0.2,1.9-1.1,3.5-2.6,4.7c-1.3,1-2.8,1.5-4.4,1.5c-2.1,0-4.1-1-5.5-2.6c-1.2-1.5-1.7-3.3-1.5-5.1C2.7,5.9,3.7,4.2,5.1,3C6.4,2,7.9,1.5,9.5,1.5 M9.5,0C7.6,0,5.7,0.6,4.2,1.9c-3.7,2.9-4.2,8.3-1.3,11.9C4.5,15.9,7,17,9.5,17c1.9,0,3.7-0.6,5.3-1.9c3.7-2.9,4.2-8.3,1.3-11.9C14.4,1.1,12,0,9.5,0"/>
		<line fill="none" stroke="#b8b8b8" stroke-width="1.5" stroke-miterlimit="10" x1="9.5" y1="5.5" x2="9.5" y2="11.5"/>
		<line fill="none" stroke="#b8b8b8" stroke-width="1.5" stroke-miterlimit="10" x1="12.5" y1="8.5" x2="6.5" y2="8.5"/>
		<path d="M14.6,13.8c-0.2,0-0.4,0.1-0.6,0.2c-0.4,0.3-0.5,1-0.2,1.4l3.4,4.2c0.2,0.2,0.5,0.4,0.8,0.4c0.2,0,0.4-0.1,0.6-0.2c0.4-0.3,0.5-1,0.2-1.4l-3.4-4.2C15.2,13.9,14.9,13.8,14.6,13.8"/>
	</g>
</svg>
