<svg xmlns="http://www.w3.org/2000/svg" viewBox="0 0 20 20"><path d="M9.5 1.5c2.1 0 4.1 1 5.5 2.6 1.2 1.5 1.7 3.3 1.5 5.1-.2 1.9-1.1 3.5-2.6 4.7a7.1 7.1 0 0 1-4.4 1.5c-2.1 0-4.1-1-5.5-2.6-1.2-1.5-1.7-3.3-1.5-5.1.2-1.8 1.2-3.5 2.6-4.7 1.3-1 2.8-1.5 4.4-1.5m0-1.5C7.6 0 5.7.6 4.2 1.9.5 4.8 0 10.2 2.9 13.8 4.5 15.9 7 17 9.5 17c1.9 0 3.7-.6 5.3-1.9 3.7-2.9 4.2-8.3 1.3-11.9C14.4 1.1 12 0 9.5 0"/><path fill="none" stroke="#b8b8b8" stroke-width="1.5" stroke-miterlimit="10" d="M9.5 5.5v6m3-3h-6"/><path d="M14.6 13.8c-.2 0-.4.1-.6.2-.4.3-.5 1-.2 1.4l3.4 4.2c.2.2.5.4.8.4.2 0 .4-.1.6-.2.4-.3.5-1 .2-1.4l-3.4-4.2c-.2-.3-.5-.4-.8-.4"/></svg>