<?xml version="1.0" encoding="utf-8"?>
<!-- Generator: Adobe Illustrator 19.2.1, SVG Export Plug-In . SVG Version: 6.00 Build 0)  -->
<svg version="1.1" id="Слой_1" xmlns="http://www.w3.org/2000/svg" xmlns:xlink="http://www.w3.org/1999/xlink" x="0px" y="0px"
	 viewBox="0 0 35 45" style="enable-background:new 0 0 35 45;" xml:space="preserve">
<g>
	<path d="M31.1,6.9c-6-7.5-17.1-8.8-24.6-2.7c-6.7,5.4-8.4,14.7-4.4,22c0.1,0.2,0.2,0.4,0.4,0.6c0.4,0.7,0.9,1.4,1.4,2c0.6,0.8,13.8,15.9,13.8,15.9s12.6-14.9,13.2-15.5c0.7-0.8,1.3-1.7,1.8-2.5l0,0c0.1-0.2,0.2-0.3,0.3-0.5C36.1,20.1,35.7,12.5,31.1,6.9z M21.3,21.7c-2.6,2.1-6.5,1.7-8.6-0.9c-2.1-2.6-1.7-6.5,0.9-8.6c2.6-2.1,6.5-1.7,8.6,0.9C24.4,15.8,24,19.6,21.3,21.7z"/>
</g>
</svg>
