<svg xmlns="http://www.w3.org/2000/svg" width="20" height="20" viewBox="0 0 50 50">
	<g>
		<path fill="#b8b8b8" d="M23.7,4.2L23.7,4.2c5.2,0,10.1,2.3,13.4,6.4c2.9,3.6,4.2,8,3.7,12.6c-0.5,4.5-2.7,8.6-6.3,11.5c-3.1,2.5-6.8,3.8-10.7,3.8c-5.2,0-10.1-2.3-13.4-6.4c-2.9-3.6-4.2-8-3.7-12.6c0.5-4.5,2.7-8.6,6.3-11.5C16.1,5.5,19.8,4.2,23.7,4.2 M23.7,0.5c-4.6,0-9.2,1.5-13,4.6c-9,7.2-10.4,20.3-3.2,29.2c4.1,5.1,10.1,7.8,16.2,7.8c4.6,0,9.2-1.5,13-4.6c9-7.2,10.4-20.3,3.2-29.2C35.9,3.2,29.8,0.5,23.7,0.5"/>
		<path fill="#b8b8b8" d="M36.3,34.3c-0.5,0-1.1,0.2-1.5,0.5c-1,0.8-1.2,2.4-0.4,3.4l8.3,10.3c0.5,0.6,1.2,0.9,1.9,0.9c0.5,0,1.1-0.2,1.5-0.5c1-0.8,1.2-2.4,0.4-3.4l-8.3-10.3C37.8,34.6,37.1,34.3,36.3,34.3"/>
	</g>
</svg>
