<svg xmlns="http://www.w3.org/2000/svg" viewBox="0 0 50 50">
	<path d="M43.3,27c0.1-0.1,0,0,0.1-0.2l0.3-0.9c1.4,0,2.4-0.2,3.5-0.6l2.3-1.6c-0.8,0-1.6,0.2-2.8,0l-2.5-0.5C44.3,23,44.7,23,45,23c0.3,0,0.6-0.1,0.9-0.2c0.6-0.1,1-0.3,1.5-0.5l1.9-1.9c-0.9,0.3-1.7,0.5-2.9,0.5c-0.6,0-2.7,0-2.9-0.5c-0.2-0.6-0.2-1.2-0.7-2.4c-0.3-0.7-0.7-1.4-1.1-2.1c-0.9-1.3-2-2.4-3.3-3.2l-5.3-1.5c0.3-0.3,1.6-0.6,2-0.7c2.4-0.6,2.2-1.5,1.6-1.7c-0.7-0.2-2.5,0.5-3.3,0.7l1.4-1.5c-1.5,0.1-2.5,0.9-3.6,1.6l0.5-1.1c-1.4,0.5-4,3.8-4.7,5.2l-3,6.5c-0.3-0.1-2-1.9-3.4-2.7c-1.2-0.7-2.7-1.5-4.1-2.1c-3.3-1.5-5.6-2.4-8.9-3.6c-0.2,2.9,1.7,4.5,4.1,6.1l-2.9,0.4c0,1.2,1,2.6,1.7,3.2c1.3,1.1,2,1.1,3.3,1.6l0.3,0.1c-2,0.3-1.4,0.1-3.1,1.2c0,0.8,1.7,2.4,3,2.7l2.8,0.4c-0.2,0.2-0.5,0.3-0.7,0.5c-0.3,0.2-0.4,0.3-0.6,0.5c-0.4,0.5-0.6,1-0.3,1.7l3.3,1.5c-0.2,0.3-1.3,1.2-1.6,1.5c-2,1.4-4.2,2.3-7,2.5c-2,0.1-4-0.3-5.5-0.9c-1.8-0.7-2.5-1.3-3.8-2.3C0.9,33,1.8,34,2.3,34.6c5.2,5.5,13.5,8.5,22.3,6.9c5.3-1,8.8-2.8,11.9-5.1c0.5-0.4,1.7-1.5,2.2-1.9c1.4-1.4,2.6-2.9,3.5-4.6C42.4,29.3,43.3,27.5,43.3,27L43.3,27L43.3,27z"/>
</svg>
