<svg xmlns="http://www.w3.org/2000/svg" viewBox="0 0 50 50">
	<path d="M42.5,28.7c3,2.8,5.1,5,6.3,6.8c0.6,0.9,0.7,1.6,0.5,2.3c-0.2,0.7-0.7,1-1.4,1l-7.8,0.4c-1.1,0.1-2.5-0.6-4-2c-1.6-1.4-2.7-2.6-3.2-3.6c-0.3-0.6-0.9-0.9-1.7-0.9c-0.8-0.1-1.4,0.3-1.6,1.2l-0.2,3.1c-0.1,0.6-0.3,1.1-0.7,1.4c-0.4,0.3-0.7,0.5-1,0.5c-0.3,0-0.7,0.1-1.4,0.2c-2.1,0.1-3.9,0-5.4-0.3c-1.5-0.3-2.9-0.9-4.2-1.7c-1.3-0.9-2.3-1.7-3-2.4c-0.8-0.7-1.8-1.9-3.3-3.4c-3.9-5.5-6.8-10.3-8.7-14.4c-0.7-1.6-1.1-2.9-1.2-4c0.3-0.3,0.9-0.5,1.8-0.6c0.9-0.1,2.1-0.1,3.8-0.1c1.7,0,2.6,0.1,3,0.1c0.8-0.1,1.4,0.4,1.9,1.3c2,4.4,3.9,7.9,5.8,10.3c1.3,1.2,2.1,1,2.5-0.6c0.2,0,0.2-1.9,0.2-5.8c0.1-2.5-0.9-4-3-4.6c0.5-1.3,2.1-1.9,5-1.9c0.7,0,1.6,0,2.6,0.1c1,0.1,1.6,0.1,1.7,0.1c2.4,0,3.6,0.9,3.6,2.8c0,0.2,0,0.8-0.1,1.7c-0.1,0.9-0.1,1.8-0.2,2.6c0,0.8-0.1,1.7-0.1,2.6c0,0.9,0.1,1.7,0.4,2.3c0.2,0.6,0.6,1,1,1.2c0.4-0.3,0.9-0.6,1.2-0.9c0.4-0.3,0.8-0.7,1.2-1.4c0.4-0.6,0.8-1.1,1-1.4c0.2-0.3,0.6-0.9,1.1-1.8c0.5-0.9,0.8-1.4,0.8-1.7c0.1-0.2,0.4-0.8,0.8-1.8c0.5-1,0.7-1.5,0.7-1.5l0.2-0.4c0.3-0.7,0.6-1.1,0.8-1.2c0.2-0.1,0.7-0.2,1.5-0.2H47c0.9,0,1.4,0,1.5,0.1c0.2,0,0.4,0.2,0.7,0.5c0.6,0.7,0.1,2.3-1.5,4.6c-1.5,2.4-3,4.4-4.5,5.9C41.4,25.6,41.1,27.3,42.5,28.7L42.5,28.7z"/>
</svg>
