<svg xmlns="http://www.w3.org/2000/svg" viewBox="0 0 50 50">
	<g>
		<path d="M31.2,5.3c0.7,0,1.3,0,1.9,0c0.2,0,0.3,0,0.5,0c0,0.3,0,0.5,0,0.7c0,3.1,0,6.1,0,9.2c0,0.2,0,0.3,0,0.5c0.1,0.3,0.2,0.8,0.4,0.9c0.3,0.1,0.7,0,1-0.2c0.6-0.3,0.9-0.8,0.9-1.5c-0.1-3,0-5.9,0-8.9c0-0.2,0-0.4,0-0.6c0.8,0,1.6,0,2.5,0c0,4.5,0,8.9,0,13.4c-0.8,0-1.6,0-2.4,0c0-0.4,0-0.9,0-1.5c-0.3,0.2-0.4,0.4-0.6,0.5c-0.6,0.6-1.3,1-2.1,1.1c-0.9,0.2-1.7-0.3-1.9-1.2c-0.1-0.4-0.1-0.8-0.1-1.2c0-3.6,0-7.2,0-10.7C31.2,5.7,31.2,5.5,31.2,5.3L31.2,5.3z"/>
		<path d="M24.2,5.2c1.6-0.4,3-0.2,4.1,1.1c0.4,0.5,0.7,1.1,0.7,1.8c0,2.6,0,5.2,0,7.9c0,1.8-1.4,3.1-3.2,3.2c-1.3,0.1-2.5-0.2-3.4-1.4c-0.4-0.6-0.6-1.2-0.6-1.9c0-1.3,0-2.6,0-4c0,0,0,0,0,0c0-1.3,0-2.6,0-3.9C21.8,6.6,22.7,5.5,24.2,5.2L24.2,5.2z M25.2,16.8c0.8,0.1,1.3-0.4,1.3-1.3c0-1.2,0-2.3,0-3.5c0-1.2,0-2.4,0-3.6c0-0.6-0.2-1-0.7-1.1c-0.8-0.3-1.5,0.2-1.5,1.1c0,2.3,0,4.7,0,7c0,0.2,0,0.4,0.1,0.6C24.4,16.5,24.7,16.8,25.2,16.8L25.2,16.8z"/>
		<path d="M15,0.5c0.1,0,0.2,0.3,0.2,0.4c0.5,2.1,1.1,4.3,1.6,6.4c0,0.2,0.1,0.3,0.1,0.4c0.1,0,0.1,0,0.2,0c0.1-0.4,0.2-0.8,0.3-1.2c0.5-1.9,0.9-3.8,1.3-5.7c0.1-0.3,0.2-0.5,0.5-0.4c0.8,0,1.5,0,2.4,0c-0.1,0.2-0.1,0.4-0.2,0.6c-1,3.2-2,6.4-2.9,9.6c-0.1,0.3-0.1,0.7-0.1,1c0,2.2,0,4.3,0,6.5c0,0.2,0,0.4,0,0.6c-0.9,0-1.8,0-2.8,0c0-0.2,0-0.4,0-0.5c0-2.1,0-4.1,0-6.2c0-0.4-0.1-0.7-0.2-1.1c-1-3.3-2-6.6-3-9.9c0-0.2-0.1-0.3-0.1-0.5C13.3,0.5,14.1,0.5,15,0.5L15,0.5z"/>
		<path d="M45.6,40.2c-0.1,1.6-0.1,3.1-0.4,4.6c-0.5,2.5-2.9,4.3-5.5,4.4c-8,0.3-16,0.4-24,0.2c-1.9,0-3.8-0.1-5.7-0.2c-2.8-0.1-5.2-2.6-5.4-5.3C4.3,40,4.2,36.2,4.3,32.4c0.1-1.9,0.1-3.8,0.4-5.7c0.3-2.6,2.6-4.7,5.2-4.8c3.9-0.2,7.7-0.2,11.6-0.3c1.2,0,2.3,0,3.5,0c0,0,0-0.1,0-0.1c4.8,0.1,9.5,0.2,14.3,0.3c2.6,0.1,4.5,1.2,5.7,3.5c0.5,1.1,0.5,2.3,0.6,3.5C45.8,32.6,45.8,36.4,45.6,40.2L45.6,40.2z M37.8,35.6c0-0.6,0-1.2,0.1-1.7c0-0.4,0.3-0.6,0.7-0.6c0.4,0,0.7,0.1,0.7,0.5c0.1,0.6,0.1,1.2,0.1,1.8C38.9,35.6,38.4,35.6,37.8,35.6L37.8,35.6z M38.3,38.3c1.2,0,2.4,0,3.7,0c0.4,0,0.6-0.1,0.6-0.6c0-1.3,0-2.7-0.1-4c-0.1-1.2-0.5-2.3-1.6-2.9c-2.5-1.4-6.1-0.2-6.3,3.4c-0.1,2.3,0,4.7,0,7c0,1,0.4,2,1.2,2.8c1.1,1.1,2.5,1.2,3.9,0.9c1.3-0.3,2.2-1,2.6-2.3c0.2-1,0.2-2,0.3-2.9c0-0.3-0.2-0.4-0.5-0.4c-0.7,0-1.4,0-2.1,0c-0.4,0-0.5,0.2-0.5,0.6c0,0.5,0,1.1-0.1,1.6c-0.1,0.5-0.5,0.8-1,0.6c-0.4-0.1-0.5-0.5-0.5-0.8c0-1,0-1.9,0-3C38,38.3,38.2,38.3,38.3,38.3L38.3,38.3z M30.1,41.4c0,0.6-0.2,0.8-0.6,0.8c-0.5,0-0.9-0.3-0.9-0.9c0-1.2,0-2.4,0-3.6c0-1.2,0-2.5,0-3.7c0-0.4,0.2-0.7,0.7-0.8c0.4-0.1,0.7,0.2,0.8,0.6c0,0.1,0.1,0.3,0.1,0.4C30.1,36.6,30.1,39,30.1,41.4L30.1,41.4z M33,32.4c-0.6-1.9-2.5-2.5-4.1-1.3c-0.1,0.1-0.2,0.1-0.4,0.2c0-1.7,0-3.2,0-4.8c0-0.5-0.2-0.6-0.6-0.6c-0.6,0-1.2,0-1.8,0c-0.6,0-0.7,0.1-0.7,0.7c0,2.9,0,5.8,0,8.7c0,3,0,6,0,9c0,0.6,0.1,0.7,0.7,0.7c0.6,0,1.3,0,1.9,0c0.4,0,0.6-0.1,0.6-0.6c0.2,0.1,0.3,0.2,0.4,0.3c1.2,0.7,2.8,0.5,3.5-0.4c0.6-0.7,0.7-1.5,0.7-2.3c0-2.6,0-5.2,0-7.8C33.3,33.5,33.2,32.9,33,32.4L33,32.4z M16.5,28.6c0-0.8,0-1.5,0-2.3c0-0.4-0.2-0.5-0.5-0.5c-2.7,0-5.5,0-8.2,0c-0.4,0-0.6,0.2-0.6,0.5c0,0.7,0,1.4,0,2.1c0,0.6,0.1,0.6,0.6,0.6c0.7,0,1.5,0,2.3,0c0,0.3,0,0.5,0,0.7c0,4.7,0,9.5,0,14.2c0,0.7,0,0.8,0.8,0.8c0.6,0,1.3,0,1.9,0c0.7,0,0.8,0,0.8-0.8c0-4.8,0-9.6,0-14.4c0-0.2,0-0.4,0-0.6c0.9,0,1.6,0,2.4,0C16.3,29.1,16.5,28.9,16.5,28.6L16.5,28.6z M23,30.6c-0.6,0-1.2,0-1.8,0c-0.6,0-0.7,0.1-0.7,0.7c0,2.9,0,5.7,0,8.6c0,0.3,0,0.6,0,0.9c0,0.4-0.7,1.1-1.1,1.1C18.7,41.8,19,41.3,19,41c0-0.3,0-0.7,0-1c0-2.9,0-5.8,0-8.7c0-0.5-0.2-0.6-0.6-0.6c-0.6,0-1.2,0-1.8,0c-0.7,0-0.7,0.1-0.7,0.7c0,3.6,0,7.2,0,10.7c0,0.2,0,0.4,0,0.6c0.2,2,1.6,2.8,3.4,1.9c0.4-0.2,0.8-0.5,1.2-0.8c0,0.1,0,0.2,0,0.2c0,0.6,0.1,0.7,0.7,0.7c0.6,0,1.3,0,1.9,0c0.4,0,0.5-0.2,0.5-0.5c0-4.4,0-8.7,0-13.1C23.6,30.8,23.4,30.6,23,30.6L23,30.6z"/>
	</g>
</svg>
