<?xml version="1.0" standalone="no"?>
<!DOCTYPE svg PUBLIC "-//W3C//DTD SVG 20010904//EN"
 "http://www.w3.org/TR/2001/REC-SVG-20010904/DTD/svg10.dtd">
<svg version="1.0" xmlns="http://www.w3.org/2000/svg"
 width="700.000000pt" height="700.000000pt" viewBox="0 0 700.000000 700.000000"
 preserveAspectRatio="xMidYMid meet">
<metadata>
Created by potrace 1.11, written by Peter Selinger 2001-2013
</metadata>
<g transform="translate(0.000000,700.000000) scale(0.100000,-0.100000)"
fill="#000000" stroke="none">
<path d="M2078 5065 c-2 -2 -35 -5 -73 -9 -218 -20 -475 -103 -720 -232 -66
-35 -227 -136 -251 -159 -6 -5 -29 -23 -50 -39 -51 -39 -210 -198 -260 -261
-148 -183 -255 -418 -289 -635 -4 -25 -9 -54 -12 -65 -2 -11 -6 -78 -8 -150
-7 -250 46 -468 162 -678 99 -178 249 -347 425 -481 48 -36 91 -66 94 -66 3 0
18 -8 32 -19 173 -121 507 -236 752 -258 121 -11 466 -3 490 12 3 2 28 6 57 9
169 19 429 98 603 183 112 55 270 155 304 191 15 17 16 79 14 708 l-3 689
-655 0 -655 0 -2 -248 -2 -248 229 3 c126 2 231 0 234 -3 3 -3 6 -187 7 -409
1 -452 5 -428 -74 -440 -84 -12 -308 -4 -382 15 -270 68 -441 271 -519 613
-16 70 -19 89 -35 222 -9 75 -7 425 3 485 46 274 83 387 170 518 40 61 144
167 163 167 7 0 13 4 13 10 0 16 129 70 216 91 63 15 106 18 195 15 63 -2 128
-7 144 -10 179 -38 349 -128 490 -259 l69 -66 41 38 c22 20 111 106 197 191
120 117 155 156 147 166 -6 7 -50 39 -97 72 -308 209 -676 327 -1044 336 -65
2 -119 2 -120 1z"/>
<path d="M3746 4028 c1 -1001 0 -990 50 -1158 90 -299 305 -570 569 -715 28
-15 55 -30 60 -35 16 -11 194 -77 255 -94 80 -22 197 -44 276 -53 131 -15 544
-6 573 11 3 2 23 7 43 10 66 10 190 46 268 77 385 154 647 461 746 874 15 63
17 169 19 1035 1 531 -1 971 -3 978 -3 9 -110 12 -491 12 l-486 0 0 -976 c0
-685 -3 -997 -11 -1044 -15 -87 -64 -187 -121 -244 -160 -162 -487 -156 -640
13 -35 39 -81 133 -100 204 -15 56 -17 166 -17 1055 l-1 992 -495 0 -495 0 1
-942z"/>
</g>
</svg>
