<svg xmlns="http://www.w3.org/2000/svg" viewBox="0 0 268 55">
<g>
	<path fill="#343835" d="M14.7,15.7v-4.4h11.7v12.3c0,0-3.8,3.7-11.7,3.7c-6.5,0-14.4-5-14.4-13c0-9.9,10.2-14.2,15.4-14.2c6.6,0,10.7,3.7,10.7,3.7l-3.5,3.5c0,0-2.4-3.1-6.4-3.1c-4,0-6.7,2.9-6.7,9.5c0,6.5,2.5,9.6,6.7,9.6c2.8,0,2.4-0.1,2.4-1.6v-6L14.7,15.7z"/>
	<path fill="#343835" d="M45,0c-8.3,0-15,6.1-15,13.7c0,7.6,6.7,13.7,15,13.7c8.3,0,15-6.1,15-13.7C59.9,6.1,53.2,0,45,0 M44.9,24c-3,0-5.5-4.7-5.5-10.4c0-5.8,2.5-10.4,5.5-10.4c3,0,5.5,4.7,5.5,10.4C50.4,19.3,47.9,24,44.9,24"/>
	<path fill="#343835" d="M221.7,0c-8.3,0-15,6.1-15,13.7c0,7.6,6.7,13.7,15,13.7c8.3,0,15-6.1,15-13.7C236.7,6.1,230,0,221.7,0M221.6,24c-3,0-5.5-4.7-5.5-10.4c0-5.8,2.5-10.4,5.5-10.4c3,0,5.5,4.7,5.5,10.4C227.1,19.3,224.7,24,221.6,24"/>
	<polygon fill="#343835" points="64.4,1 73.2,1 73.2,21.8 82.7,21.8 82.1,26.4 64.4,26.4"/>
	<path fill="#343835" d="M99.9,1H86.7v25.5h13.1c3.7,0,13.3-2.9,13.3-13.1C113.2,3.4,103.4,1,99.9,1 M98.3,22.5h-2.9V4.9H98c0.8,0,6.1,0.7,6.1,8.4C104.1,21.3,99.4,22.5,98.3,22.5"/>
	<path fill="#343835" d="M127.5,1v16c0,2.7,2.1,10.7,12.9,10.7c10.8,0,12.5-8.4,12.5-9.9V1h-8.7v17.1c0,1.4-0.7,4-4,4c-3.2,0-3.9-2.8-3.9-4.1V1H127.5z"/>
	<polygon fill="#343835" points="160,26.5 160,1 165.1,1 180.9,14.8 180.9,1 186.6,1 186.6,26.5 180.9,26.5 165.5,13.4 165.5,26.5"/>
	<polygon fill="#343835" points="241.1,26.5 241.1,1 246.1,1 261.9,14.8 261.9,1 267.7,1 267.7,26.5 262,26.5 246.6,13.4 246.6,26.5"/>
	<rect fill="#343835" x="193.3" y="1" width="8.7" height="25.5"/>
	<path fill="#343835" d="M60.9,54.7l0.4-2c0.1,0.1,0.4,0.2,0.7,0.2c0.8,0,1.1-0.4,1.1-1.4v-9.8h2.4v10c0,2.1-1.2,3.2-3,3.2C61.7,55,61.2,54.8,60.9,54.7"/>
	<polygon fill="#343835" points="70.5,41.8 76.7,41.8 76.7,43.8 72.8,43.8 72.8,45.7 76.3,45.7 76.3,47.5 72.8,47.5 72.8,49.8 76.8,49.8 76.8,51.7 70.5,51.7"/>
	<path fill="#343835" d="M80.6,41.8h2.5l1.1,4.7c0.2,0.9,0.4,1.8,0.4,1.9h0c0,0,0.2-1,0.4-2l1.1-4.6h2.3l1.1,4.6c0.2,0.9,0.4,2,0.4,2h0c0,0,0.2-1.1,0.4-1.9l1.1-4.6h2.3l-2.7,10h-2.2l-1.3-5.1c-0.2-0.8-0.4-1.9-0.4-1.9h0c0,0-0.2,1-0.4,1.9l-1.4,5.1h-2.2L80.6,41.8z"/>
	<polygon fill="#343835" points="98,41.8 104.2,41.8 104.2,43.8 100.4,43.8 100.4,45.7 103.8,45.7 103.8,47.5 100.4,47.5 100.4,49.8 104.3,49.8 104.3,51.7 98,51.7"/>
	<polygon fill="#343835" points="109,41.8 111.4,41.8 111.4,49.7 115.2,49.7 115.2,51.7 109,51.7"/>
	<path fill="#343835" d="M119.4,41.8h3.5c2.4,0,3.8,1,3.8,3c0,1.7-1.1,2.4-2.2,2.7v0c0.3,0.2,0.7,0.7,1.2,1.5l1.7,2.8h-2.6l-1.7-2.8c-0.6-0.9-0.8-1-1.2-1h-0.1v3.9h-2.4V41.8z M122.9,46.1c1,0,1.5-0.4,1.5-1.2c0-0.8-0.5-1.3-1.6-1.3h-0.9v2.5H122.9z"/>
	<polygon fill="#343835" points="133.4,48 130.2,41.8 132.8,41.8 134.7,45.8 134.8,45.8 136.7,41.8 139,41.8 135.9,48 135.9,51.7 133.4,51.7"/>
	<polygon fill="#343835" points="149.2,41.8 151.6,41.8 151.6,45.6 155.6,45.6 155.6,41.8 158,41.8 158,51.7 155.6,51.7 155.6,47.6 151.6,47.6 151.6,51.7 149.2,51.7"/>
	<path fill="#343835" d="M162.4,46.8c0-2.7,1.8-5.2,5.2-5.2c3.4,0,5.2,2.4,5.2,5.1c0,2.7-1.7,5.2-5.1,5.2C164.2,51.9,162.4,49.5,162.4,46.8 M170.2,46.8c0-1.7-0.8-3.2-2.6-3.2c-1.8,0-2.6,1.5-2.6,3.1c0,1.7,0.8,3.2,2.6,3.2C169.4,49.9,170.2,48.4,170.2,46.8"/>
	<path fill="#343835" d="M177.1,47.6v-5.8h2.4v5.6c0,1.8,0.5,2.5,2,2.5c1.4,0,1.9-0.8,1.9-2.4v-5.7h2.2v5.6c0,2.9-1.4,4.6-4.2,4.6C178.5,51.9,177.1,50.4,177.1,47.6"/>
	<path fill="#343835" d="M189.7,51l0.9-1.8c0.3,0.2,1,0.7,2,0.7c0.9,0,1.5-0.3,1.5-0.9c0-0.8-0.9-0.9-2.2-1.6c-1.2-0.6-2.1-1.4-2.1-3c0-1.9,1.5-2.9,3.3-2.9c1.6,0,2.4,0.5,2.9,0.8l-0.9,1.8c-0.4-0.3-1.1-0.6-1.9-0.6c-0.7,0-1.2,0.3-1.2,0.8c0,0.7,0.7,0.9,1.8,1.4c1.3,0.6,2.4,1.4,2.4,3c0,2-1.3,3.1-3.6,3.1C191.2,51.9,190.2,51.3,189.7,51"/>
	<polygon fill="#343835" points="200.9,41.8 207.1,41.8 207.1,43.8 203.2,43.8 203.2,45.7 206.6,45.7 206.6,47.5 203.2,47.5 203.2,49.8 207.2,49.8 207.2,51.7 200.9,51.7"/>
</g>
</svg>
