<svg xmlns="http://www.w3.org/2000/svg" viewBox="0 0 268 55"><path d="M14.7 15.7v-4.4h11.7v12.3s-3.8 3.7-11.7 3.7c-6.5 0-14.4-5-14.4-13C.3 4.4 10.5.1 15.7.1c6.6 0 10.7 3.7 10.7 3.7l-3.5 3.5s-2.4-3.1-6.4-3.1-6.7 2.9-6.7 9.5c0 6.5 2.5 9.6 6.7 9.6 2.8 0 2.4-.1 2.4-1.6v-6h-4.2zM45 0c-8.3 0-15 6.1-15 13.7s6.7 13.7 15 13.7 15-6.1 15-13.7C59.9 6.1 53.2 0 45 0m-.1 24c-3 0-5.5-4.7-5.5-10.4 0-5.8 2.5-10.4 5.5-10.4s5.5 4.7 5.5 10.4S47.9 24 44.9 24M221.7 0c-8.3 0-15 6.1-15 13.7s6.7 13.7 15 13.7 15-6.1 15-13.7S230 0 221.7 0m-.1 24c-3 0-5.5-4.7-5.5-10.4 0-5.8 2.5-10.4 5.5-10.4s5.5 4.7 5.5 10.4-2.4 10.4-5.5 10.4M64.4 1h8.8v20.8h9.5l-.6 4.6H64.4zm35.5 0H86.7v25.5h13.1c3.7 0 13.3-2.9 13.3-13.1.1-10-9.7-12.4-13.2-12.4m-1.6 21.5h-2.9V4.9H98c.8 0 6.1.7 6.1 8.4 0 8-4.7 9.2-5.8 9.2M127.5 1v16c0 2.7 2.1 10.7 12.9 10.7s12.5-8.4 12.5-9.9V1h-8.7v17.1c0 1.4-.7 4-4 4-3.2 0-3.9-2.8-3.9-4.1V1h-8.8zM160 26.5V1h5.1l15.8 13.8V1h5.7v25.5h-5.7l-15.4-13.1v13.1zm81.1 0V1h5l15.8 13.8V1h5.8v25.5H262l-15.4-13.1v13.1zM193.3 1h8.7v25.5h-8.7zM60.9 54.7l.4-2c.1.1.4.2.7.2.8 0 1.1-.4 1.1-1.4v-9.8h2.4v10c0 2.1-1.2 3.2-3 3.2-.8.1-1.3-.1-1.6-.2m9.6-12.9h6.2v2h-3.9v1.9h3.5v1.8h-3.5v2.3h4v1.9h-6.3zm10.1 0h2.5l1.1 4.7c.2.9.4 1.8.4 1.9l.4-2 1.1-4.6h2.3l1.1 4.6c.2.9.4 2 .4 2s.2-1.1.4-1.9l1.1-4.6h2.3l-2.7 10h-2.2l-1.3-5.1c-.2-.8-.4-1.9-.4-1.9s-.2 1-.4 1.9l-1.4 5.1h-2.2l-2.5-10.1zm17.4 0h6.2v2h-3.8v1.9h3.4v1.8h-3.4v2.3h3.9v1.9H98zm11 0h2.4v7.9h3.8v2H109zm10.4 0h3.5c2.4 0 3.8 1 3.8 3 0 1.7-1.1 2.4-2.2 2.7.3.2.7.7 1.2 1.5l1.7 2.8h-2.6l-1.7-2.8c-.6-.9-.8-1-1.2-1h-.1v3.9h-2.4V41.8zm3.5 4.3c1 0 1.5-.4 1.5-1.2 0-.8-.5-1.3-1.6-1.3h-.9v2.5h1zm10.5 1.9l-3.2-6.2h2.6l1.9 4h.1l1.9-4h2.3l-3.1 6.2v3.7h-2.5zm15.8-6.2h2.4v3.8h4v-3.8h2.4v9.9h-2.4v-4.1h-4v4.1h-2.4zm13.2 5c0-2.7 1.8-5.2 5.2-5.2 3.4 0 5.2 2.4 5.2 5.1 0 2.7-1.7 5.2-5.1 5.2-3.5 0-5.3-2.4-5.3-5.1m7.8 0c0-1.7-.8-3.2-2.6-3.2s-2.6 1.5-2.6 3.1c0 1.7.8 3.2 2.6 3.2s2.6-1.5 2.6-3.1m6.9.8v-5.8h2.4v5.6c0 1.8.5 2.5 2 2.5 1.4 0 1.9-.8 1.9-2.4v-5.7h2.2v5.6c0 2.9-1.4 4.6-4.2 4.6-2.9-.1-4.3-1.6-4.3-4.4m12.6 3.4l.9-1.8c.3.2 1 .7 2 .7.9 0 1.5-.3 1.5-.9 0-.8-.9-.9-2.2-1.6-1.2-.6-2.1-1.4-2.1-3 0-1.9 1.5-2.9 3.3-2.9 1.6 0 2.4.5 2.9.8l-.9 1.8c-.4-.3-1.1-.6-1.9-.6-.7 0-1.2.3-1.2.8 0 .7.7.9 1.8 1.4 1.3.6 2.4 1.4 2.4 3 0 2-1.3 3.1-3.6 3.1-1.4.1-2.4-.5-2.9-.8m11.2-9.2h6.2v2h-3.9v1.9h3.4v1.8h-3.4v2.3h4v1.9h-6.3z" fill="#343835"/></svg>